<?xml version="1.0"?>
<svg xmlns="http://www.w3.org/2000/svg" xmlns:xlink="http://www.w3.org/1999/xlink" version="1.1" id="Capa_1" x="0px" y="0px" viewBox="0 0 21.834 21.834" style="enable-background:new 0 0 21.834 21.834;" xml:space="preserve" width="512px" height="512px" class=""><g transform="matrix(-0.886385 3.25653e-16 -3.25653e-16 -0.886385 20.5937 20.5937)"><g>
	<path d="M14.674,3.715h0.357v3.202h-0.357V3.715z M15.031,7.453h3.201v0.358h-3.201V7.453z M7.3,15.887   h0.357v3.201H7.3V15.887z M4.098,14.993H7.3v0.358H4.098V14.993z M8.651,11.913l-5.77-5.769c-0.869-0.869-0.867-2.281,0-3.149   c0.014-0.013,0.039-0.04,0.039-0.04s0.053-0.05,0.078-0.076C3.865,2.012,5.276,2.012,6.144,2.88l6.001,6.001l-0.002,0.002   c0,0,0.04,0.039,0.118,0.117l0.281-0.896l0.924-0.174l0.037-0.844L7.72,1.305c-1.739-1.739-4.56-1.74-6.298-0.002   c-0.018,0.018-0.041,0.04-0.058,0.059C1.342,1.381,1.327,1.398,1.306,1.419c-1.74,1.739-1.74,4.559,0,6.299L7.1,13.512   c0.072,0.072,0.13,0.132,0.179,0.18l-0.001,0.001l0.137,0.138l0.273-0.873l0.924-0.175L8.651,11.913z M20.528,14.115l-5.762-5.759   l-0.032,0.769L13.701,9.32l-0.267,0.852l5.52,5.52c0.867,0.868,0.865,2.279-0.001,3.147c-0.015,0.013-0.039,0.04-0.039,0.04   s-0.053,0.051-0.078,0.077c-0.866,0.866-2.278,0.866-3.146-0.002l-5.773-5.773l-0.035,0.797l-1.033,0.195l-0.26,0.831l5.526,5.525   c1.739,1.739,4.56,1.741,6.298,0.003c0.019-0.02,0.041-0.041,0.059-0.061c0.021-0.019,0.036-0.036,0.058-0.057   C22.268,18.676,22.268,15.856,20.528,14.115z" data-original="#090609" class="active-path" data-old_color="#090609" fill="#FFFFFF"/>
</g></g> </svg>
