<?xml version="1.0"?>
<svg xmlns="http://www.w3.org/2000/svg" xmlns:xlink="http://www.w3.org/1999/xlink" version="1.1" id="Capa_1" x="0px" y="0px" viewBox="0 0 612 612" style="enable-background:new 0 0 612 612;" xml:space="preserve" width="512px" height="512px" class=""><g><g>
	<path d="M492.986,280.991c-25.208,0-49.373,7.874-69.524,22.431v-81.376c0-12.302-10.011-22.312-22.315-22.312h-92.462   c14.317-20.05,22.06-44.032,22.06-68.997c0-65.624-53.387-119.013-119.009-119.013c-65.624,0-119.014,53.388-119.014,119.013   c0,24.963,7.743,48.946,22.054,68.997h-92.46C10.011,199.734,0,209.744,0,222.046V328.41c0,3.049,1.86,5.79,4.696,6.913   c2.837,1.127,6.068,0.406,8.158-1.813c16.482-17.497,38.751-27.132,62.708-27.132c47.522,0,86.184,38.664,86.184,86.187   c0,47.525-38.662,86.189-86.184,86.189c-23.957,0-46.228-9.635-62.708-27.132c-2.09-2.217-5.321-2.937-8.158-1.813   C1.86,450.935,0,453.674,0,456.723V577.96c0,12.306,10.011,22.315,22.315,22.315h378.832c12.304,0,22.315-10.011,22.315-22.315   v-81.376c20.148,14.556,44.314,22.429,69.524,22.429C558.61,519.013,612,465.625,612,400.002   C612,334.381,558.61,280.991,492.986,280.991z" data-original="#000000" class="active-path" data-old_color="#000000" fill="#FFFFFF"/>
</g></g> </svg>
