<?xml version="1.0"?>
<svg xmlns="http://www.w3.org/2000/svg" xmlns:xlink="http://www.w3.org/1999/xlink" version="1.1" id="Capa_1" x="0px" y="0px" viewBox="0 0 487.272 487.272" style="enable-background:new 0 0 487.272 487.272;" xml:space="preserve" width="512px" height="512px" class=""><g><g>
	<g id="Icons_2_">
		<g>
			<path d="M479.85,78.854C479.85,35.373,444.486,0,400.996,0H86.276C42.803,0,7.422,35.373,7.422,78.854     c0,43.424,35.296,78.739,78.687,78.837L62.166,432.452c-1.231,14.044,3.529,28.065,13.055,38.48     c9.539,10.382,23.093,16.34,37.179,16.34h262.491c14.085,0,27.637-5.958,37.178-16.357c9.509-10.397,14.269-24.418,13.038-38.454     l-23.942-274.77C444.569,157.594,479.85,122.278,479.85,78.854z M386.928,447.872c-3.082,3.37-7.476,5.304-12.038,5.304H112.4     c-4.562,0-8.956-1.934-12.037-5.289c-3.082-3.371-4.631-7.906-4.229-12.459L125.07,95.904l236.434-0.64l29.636,340.17     C391.54,439.98,390.009,444.516,386.928,447.872z M400.996,106.559h-4.279l-1.249-14.25     c-1.499-17.392-15.801-30.503-33.265-30.503H125.07c-17.447,0-31.767,13.111-33.266,30.494l-1.232,14.259h-4.296     c-15.269,0-27.705-12.43-27.705-27.705s12.436-27.705,27.705-27.705h314.72c15.287,0,27.706,12.43,27.706,27.705     C428.701,94.129,416.283,106.559,400.996,106.559z" data-original="#000000" class="active-path" data-old_color="#000000" fill="#FFFFFF"/>
			<path d="M181.197,221.673c-9.139-0.402-17.464,6.667-17.981,16.065l-8.525,152.026c-0.516,9.406,6.678,17.447,16.069,17.981     c0.333,0.015,0.648,0.023,0.964,0.023c8.993,0,16.518-7.018,17.017-16.093l8.526-152.022     C197.797,230.245,190.605,222.203,181.197,221.673z" data-original="#000000" class="active-path" data-old_color="#000000" fill="#FFFFFF"/>
			<path d="M268.326,112.246c-9.422,0-17.048,7.635-17.048,17.049v275.634c0,9.417,7.626,17.051,17.048,17.051     c9.426,0,17.052-7.634,17.052-17.051V129.296C285.379,119.882,277.753,112.246,268.326,112.246z" data-original="#000000" class="active-path" data-old_color="#000000" fill="#FFFFFF"/>
		</g>
	</g>
</g></g> </svg>
